<?xml version="1.0" encoding="UTF-8" standalone="no"?><!DOCTYPE svg PUBLIC "-//W3C//DTD SVG 1.1//EN" "http://www.w3.org/Graphics/SVG/1.1/DTD/svg11.dtd"><svg width="100%" height="100%" viewBox="0 0 283 52" version="1.1" xmlns="http://www.w3.org/2000/svg" xmlns:xlink="http://www.w3.org/1999/xlink" xml:space="preserve" style="fill-rule:evenodd;clip-rule:evenodd;stroke-linejoin:round;stroke-miterlimit:1.41421;"><path d="M3.272,14.375c0,-1.441 1.476,-2.521 4.142,-2.521c1.585,0 2.954,0.288 4.105,0.648c0.144,0.036 0.288,0.072 0.468,0.072c0.826,0 1.437,-0.683 1.437,-1.438c0,-0.54 -0.359,-1.151 -1.042,-1.367c-1.474,-0.539 -3.239,-0.899 -5.22,-0.899c-4.681,0 -7.018,2.445 -7.018,5.684c0,6.555 10.8,4.718 10.8,7.815c0,1.621 -1.225,2.557 -3.998,2.557c-2.126,0 -3.602,-0.504 -4.897,-1.08c-0.251,-0.108 -0.431,-0.144 -0.647,-0.144c-0.827,0 -1.402,0.719 -1.402,1.439c0,0.503 0.252,0.935 0.611,1.186c1.834,1.007 3.921,1.619 6.551,1.619c4.609,0 6.946,-2.41 6.946,-5.324c0,-7.059 -10.836,-4.502 -10.836,-8.248l0,0.001Z" style="fill:#2196f3;fill-rule:nonzero;"/><path d="M26.494,8.87c-5.582,0 -9.214,3.848 -9.214,9.538c0,5.69 3.632,9.538 9.214,9.538c5.546,0 9.214,-3.848 9.214,-9.538c0,-5.69 -3.668,-9.538 -9.214,-9.538Zm0,16.092c-2.773,0 -5.942,-1.8 -5.942,-6.59c0,-4.754 3.169,-6.518 5.942,-6.518c2.737,0 5.942,1.764 5.942,6.518c0,4.79 -3.205,6.59 -5.942,6.59Z" style="fill:#2196f3;fill-rule:nonzero;"/><path d="M42.19,1.13c-0.899,0 -1.618,0.72 -1.618,1.656l0,23.36c0,0.9 0.719,1.62 1.618,1.62c0.934,0 1.654,-0.72 1.654,-1.62l0,-23.36c0,-0.936 -0.72,-1.656 -1.654,-1.656Z" style="fill:#2196f3;fill-rule:nonzero;"/><path d="M56.734,8.87c-2.557,0 -4.538,0.575 -6.229,1.294c-0.611,0.252 -0.935,0.755 -0.935,1.366c0,0.792 0.611,1.369 1.33,1.369c0.144,0 0.324,-0.036 0.468,-0.072c1.332,-0.433 2.773,-0.865 4.79,-0.865c3.241,0 4.826,1.261 4.826,4.468l0,0.288l-4.358,0c-5.618,0 -8.278,2.444 -8.278,5.83c0,3.385 2.732,5.398 5.865,5.398c3.385,0 5.474,-1.402 6.771,-2.732l0,0.935c0,0.897 0.719,1.617 1.618,1.617c0.899,0 1.654,-0.72 1.654,-1.62l-0.001,-10.184c0.001,-3.532 -2.264,-7.092 -7.521,-7.092Zm-1.297,16.2c-2.917,0 -3.817,-1.333 -3.817,-2.882c0,-2.054 2.053,-2.846 5.438,-2.846l3.926,0l0,3.026c-1.225,1.405 -3.314,2.702 -5.547,2.702Z" style="fill:#2196f3;fill-rule:nonzero;"/><path d="M78.908,8.87l-0.18,0c-2.484,0 -4.356,1.654 -5.652,3.38l0,-1.546c0,-0.898 -0.755,-1.654 -1.654,-1.654c-0.899,0 -1.618,0.756 -1.618,1.656l0,15.44c0,0.9 0.719,1.62 1.618,1.62c0.899,0 1.654,-0.72 1.654,-1.62l0,-10.941c1.26,-1.875 3.204,-3.171 5.58,-3.171l0.18,0c0.936,0 1.656,-0.611 1.656,-1.546c-0.001,-0.899 -0.684,-1.618 -1.585,-1.618Z" style="fill:#2196f3;fill-rule:nonzero;"/><g transform="matrix(1.51475,0,0,0.24,-1648.54,-302.694)"><g transform="matrix(0.158442,0,0,1,976.139,0)"><path d="M1198.02,1376.77c13.356,0 21.61,-6.89 27.913,-13.782l0,6.143c0,3.889 3.145,6.889 6.89,6.889c3.745,0 6.741,-3 6.741,-6.899l0,-64.334c0,-3.749 -2.996,-6.749 -6.741,-6.749c-3.745,0 -6.89,3 -6.89,6.749l0,44.989c-6.003,7.512 -13.807,14.412 -24.612,14.412c-11.705,0 -16.507,-6.9 -16.507,-18.3l0,-41.1c0,-3.75 -2.996,-6.75 -6.741,-6.75c-3.745,0 -6.89,3 -6.89,6.75l0,42.6c0,16.05 9.736,29.382 26.837,29.382Z" style="fill:none;"/><path d="M1297.02,1297.29c-23.259,0 -38.39,16.032 -38.39,39.741c0,23.708 15.131,39.741 38.39,39.741c23.109,0 38.391,-16.033 38.391,-39.741c0,-23.709 -15.282,-39.741 -38.391,-39.741Zm0,67.05c-11.554,0 -24.759,-7.502 -24.759,-27.459c0,-19.807 13.205,-27.159 24.759,-27.159c11.405,0 24.76,7.352 24.76,27.159c0,19.957 -13.355,27.459 -24.76,27.459Z" style="fill:none;"/><path d="M1391.21,1363.44c-2.55,0 -4.2,1.35 -9,1.35c-3.75,0 -9.75,-0.15 -9.75,-9.003l0,-45.315l16.95,0c3.301,0 5.85,-2.546 5.85,-5.841c0,-3.295 -2.549,-5.841 -5.847,-5.841l-16.953,0l0,-12c0,-1.65 -1.199,-3 -2.846,-3c-1.199,0 -2.097,0.9 -2.547,1.35l-20.388,19.94c-0.9,0.749 -1.35,1.648 -1.35,2.546c0,1.648 1.2,2.846 2.85,2.846l10.65,0l0,46.516c0,18.586 14.831,19.784 21.881,19.784c4.8,0 8.85,-1.049 12.45,-2.696c2.1,-1.049 3.45,-2.696 3.45,-5.242c0,-3.145 -2.7,-5.394 -5.4,-5.394Z" style="fill:none;"/><path d="M1469.97,1358.78c-1.049,0 -1.798,0.15 -2.697,0.6c-5.548,2.853 -11.25,4.654 -20.254,4.654c-16.207,0 -24.761,-8.707 -26.261,-22.218l50.859,0c4.195,0 6.891,-2.995 6.891,-6.739c0,-19.956 -12.583,-37.793 -35.691,-37.793c-24.905,0 -35.84,19.488 -35.84,39.74c0,25.209 14.381,39.742 38.842,39.742c13.055,0 19.657,-2.846 26.248,-6.591c2.097,-1.198 3.894,-3.145 3.894,-5.542c0,-3.451 -2.846,-5.853 -5.991,-5.853Zm-27.153,-49.964c9.604,0 21.309,6.305 22.21,21.918l-44.269,0c0.9,-15.613 12.455,-21.918 22.059,-21.918Z" style="fill:none;"/><path d="M1534.31,1363.44c-2.55,0 -4.2,1.35 -9,1.35c-3.75,0 -9.75,-0.15 -9.75,-9.003l0,-45.315l16.95,0c3.301,0 5.85,-2.546 5.85,-5.841c0,-3.295 -2.549,-5.841 -5.847,-5.841l-16.953,0l0,-12c0,-1.65 -1.199,-3 -2.846,-3c-1.199,0 -2.097,0.9 -2.547,1.35l-20.388,19.94c-0.9,0.749 -1.35,1.648 -1.35,2.546c0,1.648 1.2,2.846 2.85,2.846l10.65,0l0,46.516c0,18.586 14.831,19.784 21.881,19.784c4.8,0 8.85,-1.049 12.45,-2.696c2.1,-1.049 3.45,-2.696 3.45,-5.242c0,-3.145 -2.7,-5.394 -5.4,-5.394Z" style="fill:none;"/><path d="M1588.32,1297.29c-23.259,0 -38.39,16.032 -38.39,39.741c0,23.708 15.131,39.741 38.39,39.741c23.109,0 38.391,-16.033 38.391,-39.741c0,-23.709 -15.282,-39.741 -38.391,-39.741Zm0,67.05c-11.554,0 -24.759,-7.502 -24.759,-27.459c0,-19.807 13.205,-27.159 24.759,-27.159c11.405,0 24.76,7.352 24.76,27.159c0,19.957 -13.355,27.459 -24.76,27.459Z" style="fill:none;"/><path d="M1677.42,1297.29c-18.156,0 -36.289,14.232 -36.289,39.741c0,25.509 18.133,39.741 36.289,39.741c10.504,0 18.758,-4.194 25.661,-11.384l0,3.895c0,3.739 2.995,6.739 6.89,6.739c3.745,0 6.741,-3 6.741,-6.75l0,-97.332c0,-3.9 -2.996,-6.9 -6.741,-6.9c-3.895,0 -6.89,3 -6.89,6.9l0,36.734c-6.903,-7.19 -15.157,-11.384 -25.661,-11.384Zm1.951,66.75c-14.255,0 -24.609,-9.303 -24.609,-27.009c0,-17.706 10.354,-27.009 24.609,-27.009c9.754,0 17.857,4.801 23.71,11.253l0,31.511c-5.853,6.453 -13.956,11.254 -23.71,11.254Z" style="fill:none;"/><path d="M1769.22,1297.29c-10.655,0 -18.909,2.397 -25.954,5.393c-2.546,1.048 -3.894,3.145 -3.894,5.691c0,3.299 2.546,5.701 5.542,5.701c0.599,0 1.348,-0.15 1.947,-0.3c5.551,-1.802 11.554,-3.603 19.958,-3.603c13.507,0 20.11,5.255 20.11,18.617l0,1.201l-18.159,0c-23.407,0 -34.491,10.183 -34.491,24.292c0,14.103 11.384,22.49 24.436,22.49c14.107,0 22.811,-5.841 28.214,-11.383l0,3.894c0,3.739 2.995,6.739 6.74,6.739c3.745,0 6.891,-3 6.891,-6.75l0,-42.435c0,-14.713 -9.437,-29.547 -31.34,-29.547Zm-5.402,67.5c-12.156,0 -15.908,-5.554 -15.908,-12.009c0,-8.557 8.554,-11.859 22.661,-11.859l16.358,0l0,12.609c-5.103,5.855 -13.807,11.259 -23.111,11.259Z" style="fill:none;"/><path d="M1887.12,1304.93c0,-3.749 -3,-6.899 -6.75,-6.899c-3,0 -5.1,1.8 -6.3,4.5l-23.55,56.99l-23.1,-57.29c-1.05,-2.4 -3.45,-4.2 -6.3,-4.2c-3.75,0 -6.75,3.15 -6.75,6.899c0,1.05 0.3,2.1 0.6,2.85l28.2,68.688l-9.75,25.046c-0.3,0.75 -0.45,1.65 -0.45,2.4c0,3.599 2.85,6.599 6.45,6.599c3.15,0 5.1,-1.95 6.3,-4.65l40.95,-98.383c0.3,-0.75 0.45,-1.65 0.45,-2.55Z" style="fill:none;"/></g><g transform="matrix(0.158442,0,0,1,976.139,0)"><path d="M1198.02,1376.77c13.356,0 21.61,-6.89 27.913,-13.782l0,6.143c0,3.889 3.145,6.889 6.89,6.889c3.745,0 6.741,-3 6.741,-6.899l0,-64.334c0,-3.749 -2.996,-6.749 -6.741,-6.749c-3.745,0 -6.89,3 -6.89,6.749l0,44.989c-6.003,7.512 -13.807,14.412 -24.612,14.412c-11.705,0 -16.507,-6.9 -16.507,-18.3l0,-41.1c0,-3.75 -2.996,-6.75 -6.741,-6.75c-3.745,0 -6.89,3 -6.89,6.75l0,42.6c0,16.05 9.736,29.382 26.837,29.382Z" style="fill:#757575;fill-rule:nonzero;stroke:#757575;stroke-width:1px;"/><path d="M1297.02,1297.29c-23.259,0 -38.39,16.032 -38.39,39.741c0,23.708 15.131,39.741 38.39,39.741c23.109,0 38.391,-16.033 38.391,-39.741c0,-23.709 -15.282,-39.741 -38.391,-39.741Zm0,67.05c-11.554,0 -24.759,-7.502 -24.759,-27.459c0,-19.807 13.205,-27.159 24.759,-27.159c11.405,0 24.76,7.352 24.76,27.159c0,19.957 -13.355,27.459 -24.76,27.459Z" style="fill:#757575;fill-rule:nonzero;stroke:#757575;stroke-width:1px;"/><path d="M1391.21,1363.44c-2.55,0 -4.2,1.35 -9,1.35c-3.75,0 -9.75,-0.15 -9.75,-9.003l0,-45.315l16.95,0c3.301,0 5.85,-2.546 5.85,-5.841c0,-3.295 -2.549,-5.841 -5.847,-5.841l-16.953,0l0,-12c0,-1.65 -1.199,-3 -2.846,-3c-1.199,0 -2.097,0.9 -2.547,1.35l-20.388,19.94c-0.9,0.749 -1.35,1.648 -1.35,2.546c0,1.648 1.2,2.846 2.85,2.846l10.65,0l0,46.516c0,18.586 14.831,19.784 21.881,19.784c4.8,0 8.85,-1.049 12.45,-2.696c2.1,-1.049 3.45,-2.696 3.45,-5.242c0,-3.145 -2.7,-5.394 -5.4,-5.394Z" style="fill:#757575;fill-rule:nonzero;stroke:#757575;stroke-width:1px;"/><path d="M1469.97,1358.78c-1.049,0 -1.798,0.15 -2.697,0.6c-5.548,2.853 -11.25,4.654 -20.254,4.654c-16.207,0 -24.761,-8.707 -26.261,-22.218l50.859,0c4.195,0 6.891,-2.995 6.891,-6.739c0,-19.956 -12.583,-37.793 -35.691,-37.793c-24.905,0 -35.84,19.488 -35.84,39.74c0,25.209 14.381,39.742 38.842,39.742c13.055,0 19.657,-2.846 26.248,-6.591c2.097,-1.198 3.894,-3.145 3.894,-5.542c0,-3.451 -2.846,-5.853 -5.991,-5.853Zm-27.153,-49.964c9.604,0 21.309,6.305 22.21,21.918l-44.269,0c0.9,-15.613 12.455,-21.918 22.059,-21.918Z" style="fill:#757575;fill-rule:nonzero;stroke:#757575;stroke-width:1px;"/><path d="M1534.31,1363.44c-2.55,0 -4.2,1.35 -9,1.35c-3.75,0 -9.75,-0.15 -9.75,-9.003l0,-45.315l16.95,0c3.301,0 5.85,-2.546 5.85,-5.841c0,-3.295 -2.549,-5.841 -5.847,-5.841l-16.953,0l0,-12c0,-1.65 -1.199,-3 -2.846,-3c-1.199,0 -2.097,0.9 -2.547,1.35l-20.388,19.94c-0.9,0.749 -1.35,1.648 -1.35,2.546c0,1.648 1.2,2.846 2.85,2.846l10.65,0l0,46.516c0,18.586 14.831,19.784 21.881,19.784c4.8,0 8.85,-1.049 12.45,-2.696c2.1,-1.049 3.45,-2.696 3.45,-5.242c0,-3.145 -2.7,-5.394 -5.4,-5.394Z" style="fill:#a1a1a1;fill-rule:nonzero;stroke:#757575;stroke-width:1px;"/><path d="M1588.32,1297.29c-23.259,0 -38.39,16.032 -38.39,39.741c0,23.708 15.131,39.741 38.39,39.741c23.109,0 38.391,-16.033 38.391,-39.741c0,-23.709 -15.282,-39.741 -38.391,-39.741Zm0,67.05c-11.554,0 -24.759,-7.502 -24.759,-27.459c0,-19.807 13.205,-27.159 24.759,-27.159c11.405,0 24.76,7.352 24.76,27.159c0,19.957 -13.355,27.459 -24.76,27.459Z" style="fill:#a1a1a1;fill-rule:nonzero;stroke:#757575;stroke-width:1px;"/><path d="M1677.42,1297.29c-18.156,0 -36.289,14.232 -36.289,39.741c0,25.509 18.133,39.741 36.289,39.741c10.504,0 18.758,-4.194 25.661,-11.384l0,3.895c0,3.739 2.995,6.739 6.89,6.739c3.745,0 6.741,-3 6.741,-6.75l0,-97.332c0,-3.9 -2.996,-6.9 -6.741,-6.9c-3.895,0 -6.89,3 -6.89,6.9l0,36.734c-6.903,-7.19 -15.157,-11.384 -25.661,-11.384Zm1.951,66.75c-14.255,0 -24.609,-9.303 -24.609,-27.009c0,-17.706 10.354,-27.009 24.609,-27.009c9.754,0 17.857,4.801 23.71,11.253l0,31.511c-5.853,6.453 -13.956,11.254 -23.71,11.254Z" style="fill:#a1a1a1;fill-rule:nonzero;stroke:#757575;stroke-width:1px;"/><path d="M1769.22,1297.29c-10.655,0 -18.909,2.397 -25.954,5.393c-2.546,1.048 -3.894,3.145 -3.894,5.691c0,3.299 2.546,5.701 5.542,5.701c0.599,0 1.348,-0.15 1.947,-0.3c5.551,-1.802 11.554,-3.603 19.958,-3.603c13.507,0 20.11,5.255 20.11,18.617l0,1.201l-18.159,0c-23.407,0 -34.491,10.183 -34.491,24.292c0,14.103 11.384,22.49 24.436,22.49c14.107,0 22.811,-5.841 28.214,-11.383l0,3.894c0,3.739 2.995,6.739 6.74,6.739c3.745,0 6.891,-3 6.891,-6.75l0,-42.435c0,-14.713 -9.437,-29.547 -31.34,-29.547Zm-5.402,67.5c-12.156,0 -15.908,-5.554 -15.908,-12.009c0,-8.557 8.554,-11.859 22.661,-11.859l16.358,0l0,12.609c-5.103,5.855 -13.807,11.259 -23.111,11.259Z" style="fill:#a1a1a1;fill-rule:nonzero;stroke:#757575;stroke-width:1px;"/><path d="M1887.12,1304.93c0,-3.749 -3,-6.899 -6.75,-6.899c-3,0 -5.1,1.8 -6.3,4.5l-23.55,56.99l-23.1,-57.29c-1.05,-2.4 -3.45,-4.2 -6.3,-4.2c-3.75,0 -6.75,3.15 -6.75,6.899c0,1.05 0.3,2.1 0.6,2.85l28.2,68.688l-9.75,25.046c-0.3,0.75 -0.45,1.65 -0.45,2.4c0,3.599 2.85,6.599 6.45,6.599c3.15,0 5.1,-1.95 6.3,-4.65l40.95,-98.383c0.3,-0.75 0.45,-1.65 0.45,-2.55Z" style="fill:#a1a1a1;fill-rule:nonzero;stroke:#757575;stroke-width:1px;"/></g></g><g><path d="M105.047,11.276c-3.615,-5.262 -10.811,-6.597 -16.072,-2.982c-5.262,3.614 -6.597,10.81 -2.983,16.072c3.615,5.262 10.811,6.597 16.073,2.982c5.262,-3.614 6.597,-10.81 2.982,-16.072Zm-4.224,14.264c-4.263,2.929 -10.094,1.847 -13.023,-2.416c-2.928,-4.263 -1.847,-10.094 2.417,-13.022c4.263,-2.929 10.093,-1.847 13.022,2.416c2.929,4.263 1.847,10.094 -2.416,13.022Z" style="fill:#757575;fill-rule:nonzero;"/><path d="M89.196,21.352c-0.29,0 -0.566,-0.172 -0.684,-0.456c-0.025,-0.059 -0.595,-1.449 -0.541,-3.272c0.051,-1.707 0.671,-4.128 3.336,-5.971c0.337,-0.233 0.8,-0.149 1.033,0.188c0.233,0.338 0.149,0.8 -0.188,1.033c-1.715,1.185 -2.621,2.781 -2.695,4.742c-0.056,1.514 0.421,2.699 0.426,2.71c0.156,0.379 -0.025,0.813 -0.403,0.969c-0.093,0.039 -0.189,0.057 -0.284,0.057Z" style="fill:#757575;fill-rule:nonzero;"/><path d="M106.337,29.197l-3.183,2.186c-0.279,0.192 -0.663,0.12 -0.855,-0.158l-1.261,-1.836c-0.191,-0.279 -0.12,-0.663 0.159,-0.854l3.183,-2.187c0.278,-0.191 0.663,-0.12 0.854,0.159l1.261,1.835c0.192,0.279 0.12,0.663 -0.158,0.855Z" style="fill:#757575;fill-rule:nonzero;"/><path d="M114.051,41.782l-1.917,1.317c-0.627,0.43 -1.449,0.331 -1.828,-0.22l-6.675,-9.716c-0.379,-0.551 -0.176,-1.355 0.451,-1.785l1.917,-1.317c0.626,-0.431 1.449,-0.332 1.828,0.219l6.675,9.717c0.378,0.551 0.175,1.354 -0.451,1.785Z" style="fill:#757575;fill-rule:nonzero;"/></g></svg>